<svg xmlns="http://www.w3.org/2000/svg" xmlns:xlink="http://www.w3.org/1999/xlink" width="1000" zoomAndPan="magnify" viewBox="0 0 750 225" height="300" preserveAspectRatio="xMidYMid meet" version="1.0"><defs><g/><clipPath id="e27d46ad60"><path d="M 72 34.890625 L 199 34.890625 L 199 161 L 72 161 Z M 72 34.890625 " clip-rule="nonzero"/></clipPath><clipPath id="23b8d90d71"><path d="M 191 164 L 229.386719 164 L 229.386719 202.140625 L 191 202.140625 Z M 191 164 " clip-rule="nonzero"/></clipPath><clipPath id="8971f549cf"><path d="M 42.636719 114 L 93 114 L 93 154 L 42.636719 154 Z M 42.636719 114 " clip-rule="nonzero"/></clipPath></defs><g clip-path="url(#e27d46ad60)"><path fill="#fe7302" d="M 177.742188 144.898438 C 178.796875 143.984375 179.703125 143.128906 180.542969 142.277344 C 182.0625 140.738281 183.460938 139.167969 184.707031 137.628906 C 189.433594 131.824219 192.976562 125.441406 195.335938 118.761719 C 196.050781 116.742188 196.660156 114.6875 197.15625 112.621094 C 197.199219 112.433594 197.25 112.253906 197.292969 112.074219 C 197.738281 110.15625 198.09375 108.21875 198.347656 106.28125 C 199.695312 96.378906 198.652344 86.265625 195.269531 76.804688 C 194.492188 74.625 193.585938 72.476562 192.5625 70.378906 C 189.53125 64.152344 185.402344 58.316406 180.207031 53.164062 L 180.195312 53.164062 C 168.335938 41.367188 152.585938 34.890625 135.859375 34.890625 L 135.605469 34.890625 C 118.78125 34.953125 102.980469 41.558594 91.128906 53.511719 C 86.144531 58.527344 82.183594 64.183594 79.246094 70.210938 C 78.214844 72.308594 77.308594 74.445312 76.539062 76.625 C 73.148438 86.097656 72.105469 96.21875 73.378906 106.089844 C 73.632812 108.039062 73.980469 109.988281 74.421875 111.90625 C 74.453125 112.085938 74.496094 112.261719 74.546875 112.441406 C 75.023438 114.519531 75.621094 116.570312 76.328125 118.59375 C 79.363281 127.378906 84.398438 135.617188 91.421875 142.59375 C 93.742188 144.867188 96.214844 146.972656 98.789062 148.839844 C 98.902344 148.921875 99.019531 149.007812 99.136719 149.089844 C 99.515625 149.367188 99.882812 149.628906 100.261719 149.871094 C 101.96875 151.039062 103.707031 152.113281 105.488281 153.09375 C 124.375 163.523438 147.117188 163.566406 166.015625 153.179688 C 167.472656 152.390625 168.902344 151.523438 170.316406 150.597656 C 170.324219 150.597656 170.324219 150.585938 170.335938 150.585938 L 170.695312 150.367188 C 170.894531 150.238281 171.105469 150.113281 171.296875 149.976562 C 171.714844 149.679688 172.0625 149.4375 172.402344 149.207031 C 172.539062 149.101562 172.675781 148.996094 172.8125 148.902344 C 173.886719 148.113281 174.941406 147.3125 175.960938 146.46875 C 176.46875 146.046875 176.960938 145.636719 177.425781 145.171875 C 177.53125 145.078125 177.636719 144.992188 177.742188 144.898438 Z M 176.445312 139.1875 C 176.371094 139.261719 176.265625 139.347656 176.160156 139.441406 C 175.5 140.09375 174.824219 140.726562 174.140625 141.316406 C 173.75 141.675781 173.347656 142.011719 172.949219 142.339844 C 171.15625 143.835938 169.273438 145.226562 167.335938 146.480469 L 167.324219 146.480469 C 166.816406 146.804688 166.3125 147.121094 165.808594 147.4375 L 165.796875 147.4375 C 164.351562 148.34375 162.785156 149.207031 161.171875 149.976562 L 161.117188 150.007812 C 161.117188 150.007812 161.054688 150.039062 161.023438 150.0625 C 160.265625 150.429688 159.484375 150.796875 158.675781 151.105469 C 158.128906 151.347656 157.578125 151.578125 157.019531 151.800781 C 156.460938 152.019531 155.90625 152.242188 155.335938 152.441406 C 151.921875 153.683594 148.308594 154.601562 144.578125 155.148438 C 144.222656 155.203125 143.851562 155.253906 143.496094 155.296875 C 143.136719 155.347656 142.769531 155.390625 142.410156 155.433594 C 140.882812 155.621094 139.429688 155.726562 138.027344 155.769531 C 137.765625 155.78125 137.492188 155.792969 137.226562 155.792969 L 137.207031 155.792969 C 137.070312 155.800781 136.910156 155.800781 136.753906 155.800781 L 136.246094 155.800781 C 136.132812 155.800781 136.015625 155.800781 135.890625 155.800781 C 135.457031 155.800781 135.015625 155.800781 134.574219 155.78125 C 134.320312 155.78125 134.066406 155.769531 133.8125 155.761719 C 133.066406 155.738281 132.339844 155.6875 131.613281 155.632812 C 130.410156 155.539062 129.316406 155.433594 128.25 155.296875 C 127.871094 155.242188 127.484375 155.191406 127.105469 155.136719 L 124.3125 154.632812 C 123.847656 154.546875 123.375 154.453125 122.898438 154.347656 C 122.003906 154.148438 121.097656 153.917969 120.183594 153.640625 C 119.707031 153.515625 119.234375 153.367188 118.761719 153.210938 C 118.558594 153.15625 118.285156 153.074219 117.992188 152.957031 C 117.296875 152.769531 116.621094 152.527344 115.925781 152.261719 C 115.882812 152.242188 115.832031 152.230469 115.789062 152.210938 C 115.726562 152.1875 115.652344 152.15625 115.589844 152.136719 C 114.875 151.894531 114.050781 151.566406 113.21875 151.199219 L 113.0625 151.136719 C 112.988281 151.105469 112.914062 151.070312 112.851562 151.039062 C 112.3125 150.820312 111.765625 150.585938 111.226562 150.3125 L 111.21875 150.3125 L 110.796875 150.113281 L 110.648438 150.050781 C 110.648438 150.050781 110.554688 150.007812 110.511719 149.988281 C 110.425781 149.945312 110.34375 149.902344 110.269531 149.859375 C 110.058594 149.765625 109.859375 149.660156 109.667969 149.566406 C 109.574219 149.511719 109.488281 149.472656 109.394531 149.429688 C 109.195312 149.3125 108.984375 149.207031 108.785156 149.089844 C 108.773438 149.089844 108.761719 149.089844 108.761719 149.082031 C 108.5625 148.976562 108.375 148.871094 108.183594 148.765625 C 107.824219 148.574219 107.4375 148.363281 107.046875 148.144531 C 106.847656 148.027344 106.644531 147.910156 106.445312 147.785156 C 106.246094 147.667969 106.046875 147.554688 105.855469 147.425781 C 105.78125 147.386719 105.699219 147.332031 105.613281 147.28125 C 105.171875 147.027344 104.6875 146.722656 104.203125 146.40625 C 104.011719 146.269531 103.832031 146.140625 103.644531 146.003906 C 103.621094 145.996094 103.601562 145.972656 103.582031 145.964844 C 102.8125 145.46875 102.042969 144.929688 101.253906 144.351562 C 100.460938 143.761719 99.652344 143.128906 98.839844 142.453125 L 98.828125 142.453125 C 97.648438 141.476562 96.554688 140.472656 95.480469 139.410156 C 95.4375 139.378906 95.394531 139.335938 95.351562 139.304688 C 95.332031 139.285156 95.3125 139.273438 95.300781 139.261719 L 95.175781 139.125 L 95.089844 139.050781 L 94.941406 138.90625 C 94.648438 138.609375 94.351562 138.316406 94.078125 138.019531 C 88.441406 132.183594 84.292969 125.441406 81.617188 118.269531 C 80.890625 116.328125 80.269531 114.371094 79.773438 112.390625 C 79.730469 112.273438 79.710938 112.160156 79.679688 112.042969 C 79.171875 110.007812 78.773438 107.953125 78.488281 105.890625 C 77.855469 101.351562 77.769531 96.746094 78.222656 92.183594 C 78.414062 90.269531 78.699219 88.371094 79.078125 86.476562 C 79.320312 85.230469 79.605469 83.988281 79.941406 82.757812 C 80.164062 81.882812 80.425781 80.996094 80.699219 80.132812 C 81.027344 79.113281 81.382812 78.089844 81.773438 77.089844 C 81.890625 76.773438 82.015625 76.457031 82.144531 76.140625 C 82.492188 75.289062 82.859375 74.433594 83.238281 73.59375 C 83.617188 72.769531 84.019531 71.960938 84.4375 71.148438 C 84.765625 70.503906 85.113281 69.875 85.472656 69.242188 C 85.609375 69.007812 85.734375 68.777344 85.871094 68.546875 C 88.261719 64.457031 91.214844 60.59375 94.699219 57.074219 C 94.929688 56.84375 95.152344 56.621094 95.375 56.410156 C 95.488281 56.292969 95.617188 56.179688 95.742188 56.0625 C 95.753906 56.0625 95.765625 56.050781 95.773438 56.042969 C 96.207031 55.597656 96.773438 55.074219 97.332031 54.578125 C 98.1875 53.820312 99.050781 53.09375 99.933594 52.398438 C 100.820312 51.691406 101.726562 51.027344 102.644531 50.386719 C 103.378906 49.867188 104.128906 49.363281 104.898438 48.890625 C 106.023438 48.171875 107.183594 47.5 108.351562 46.875 C 109.046875 46.476562 109.828125 46.097656 110.597656 45.730469 C 111.449219 45.308594 112.269531 44.917969 113.101562 44.589844 L 113.113281 44.589844 C 113.113281 44.589844 113.207031 44.546875 113.261719 44.527344 C 113.460938 44.433594 113.660156 44.339844 113.871094 44.265625 C 114.050781 44.191406 114.242188 44.117188 114.429688 44.042969 C 114.492188 44.023438 114.566406 43.992188 114.628906 43.96875 C 115.335938 43.683594 115.957031 43.464844 116.558594 43.242188 L 117.011719 43.085938 C 117.8125 42.8125 118.570312 42.566406 119.285156 42.367188 C 120.066406 42.125 120.941406 41.882812 121.804688 41.695312 C 122.214844 41.566406 122.847656 41.410156 123.511719 41.292969 C 123.648438 41.261719 123.785156 41.21875 123.933594 41.1875 C 124.082031 41.15625 124.238281 41.125 124.394531 41.082031 C 124.40625 41.09375 124.40625 41.082031 124.417969 41.082031 C 124.574219 41.050781 124.742188 41.019531 124.921875 40.988281 L 124.945312 40.988281 C 125.125 40.957031 125.300781 40.925781 125.492188 40.894531 C 126.25 40.746094 126.933594 40.621094 127.621094 40.546875 C 128.210938 40.460938 129 40.34375 129.746094 40.3125 C 138.480469 39.34375 147.203125 40.398438 155.304688 43.285156 C 157.050781 43.917969 158.769531 44.621094 160.457031 45.421875 C 166.363281 48.195312 171.84375 51.996094 176.613281 56.738281 L 176.625 56.738281 C 176.972656 57.074219 177.308594 57.421875 177.636719 57.769531 C 177.984375 58.136719 178.34375 58.515625 178.691406 58.898438 C 179.183594 59.445312 179.679688 60.011719 180.15625 60.570312 C 180.628906 61.140625 181.09375 61.710938 181.546875 62.289062 C 182.144531 63.058594 182.726562 63.847656 183.285156 64.636719 C 184.800781 66.765625 186.148438 68.988281 187.339844 71.296875 C 188.328125 73.222656 189.214844 75.203125 189.984375 77.238281 C 192.4375 83.671875 193.722656 90.5625 193.753906 97.652344 C 193.765625 100.496094 193.574219 103.308594 193.175781 106.070312 C 192.890625 108.144531 192.480469 110.199219 191.964844 112.210938 C 191.941406 112.328125 191.910156 112.441406 191.878906 112.558594 C 191.363281 114.550781 190.742188 116.507812 190.015625 118.425781 L 190.003906 118.425781 C 189.035156 121.007812 187.875 123.492188 186.539062 125.894531 C 186.097656 126.707031 185.621094 127.496094 185.136719 128.285156 C 184.863281 128.738281 184.578125 129.191406 184.285156 129.632812 C 184.019531 130.035156 183.746094 130.433594 183.472656 130.824219 C 183.199219 131.226562 182.925781 131.613281 182.640625 132.003906 C 182.597656 132.066406 182.546875 132.121094 182.515625 132.183594 C 182.070312 132.773438 181.628906 133.351562 181.175781 133.921875 C 181.039062 134.089844 180.902344 134.257812 180.765625 134.429688 C 179.574219 135.890625 178.289062 137.324219 176.929688 138.695312 L 176.445312 139.179688 Z M 176.445312 139.1875 " fill-opacity="1" fill-rule="nonzero"/></g><g clip-path="url(#23b8d90d71)"><path fill="#fe7302" d="M 228.253906 193.355469 L 200.023438 165.335938 C 199.378906 164.703125 198.535156 164.355469 197.632812 164.355469 C 197.515625 164.34375 197.398438 164.34375 197.292969 164.355469 C 196.429688 164.386719 195.789062 164.777344 195.21875 165.347656 L 192.246094 168.339844 C 191.679688 168.90625 191.34375 169.644531 191.277344 170.445312 C 191.257812 170.539062 191.257812 170.644531 191.257812 170.75 C 191.269531 171.65625 191.617188 172.5 192.269531 173.140625 L 220.5 201.164062 C 221.828125 202.480469 223.988281 202.46875 225.304688 201.140625 L 228.277344 198.148438 C 229.59375 196.824219 229.582031 194.664062 228.253906 193.347656 Z M 228.253906 193.355469 " fill-opacity="1" fill-rule="nonzero"/></g><path fill="#fe7302" d="M 187.875 160.109375 L 179.636719 151.925781 L 179.554688 151.839844 C 179.554688 151.839844 179.523438 151.871094 179.511719 151.882812 C 179.226562 152.113281 178.941406 152.335938 178.667969 152.546875 C 178.152344 152.957031 177.636719 153.347656 177.132812 153.726562 L 182.757812 159.320312 L 187.488281 164.019531 L 188.066406 164.597656 L 190.214844 162.417969 L 189.636719 161.847656 L 187.886719 160.109375 Z M 187.875 160.109375 " fill-opacity="1" fill-rule="nonzero"/><path fill="#fe7302" d="M 195.480469 154 C 196.304688 153.988281 197.144531 153.9375 198.011719 153.863281 C 199.335938 153.769531 200.632812 153.632812 201.929688 153.433594 C 206.34375 152.777344 210.546875 151.566406 214.445312 149.839844 C 215.085938 149.566406 215.644531 149.300781 216.214844 149.039062 L 216.6875 148.828125 C 218.003906 148.164062 219.40625 147.394531 220.785156 146.574219 C 222.988281 145.246094 225.125 143.71875 227.148438 142.035156 C 227.769531 141.527344 228.371094 140.992188 228.960938 140.441406 C 227.496094 133.804688 224.210938 127.792969 219.363281 122.945312 C 215.898438 119.480469 211.714844 116.742188 207.1875 114.949219 C 205.753906 115.886719 204.214844 116.65625 202.59375 117.257812 C 200.0625 125.925781 195.777344 134.25 189.710938 141.6875 C 188.351562 143.371094 186.8125 145.097656 185.125 146.804688 C 184.882812 147.058594 184.632812 147.300781 184.378906 147.542969 L 190.773438 153.90625 C 191.550781 153.957031 192.238281 153.988281 192.921875 154 Z M 195.480469 154 " fill-opacity="1" fill-rule="nonzero"/><path fill="#fe7302" d="M 182.03125 120.617188 C 182.691406 119.257812 183.292969 117.878906 183.832031 116.488281 C 182.863281 116.046875 181.945312 115.527344 181.058594 114.949219 C 177.457031 116.363281 174.160156 118.332031 171.261719 120.742188 C 173.191406 123.726562 174.71875 126.9375 175.824219 130.308594 C 175.835938 130.289062 175.847656 130.277344 175.855469 130.265625 C 176.140625 129.929688 176.402344 129.582031 176.65625 129.246094 C 176.929688 128.90625 177.183594 128.558594 177.4375 128.210938 C 177.691406 127.863281 177.933594 127.515625 178.175781 127.167969 C 178.542969 126.644531 178.890625 126.117188 179.238281 125.578125 C 179.921875 124.503906 180.554688 123.410156 181.164062 122.304688 C 181.460938 121.746094 181.746094 121.1875 182.03125 120.617188 Z M 182.03125 120.617188 " fill-opacity="1" fill-rule="nonzero"/><path fill="#fe7302" d="M 204.710938 107.398438 C 204.636719 107.945312 204.5625 108.492188 204.46875 109.03125 C 205.015625 108.640625 205.542969 108.21875 206.039062 107.765625 C 209.652344 104.511719 211.925781 99.800781 211.925781 94.566406 C 211.925781 87.875 208.21875 82.03125 202.738281 78.984375 C 204.488281 85.148438 205.375 91.511719 205.375 97.882812 C 205.375 101.066406 205.152344 104.238281 204.710938 107.398438 Z M 204.710938 107.398438 " fill-opacity="1" fill-rule="nonzero"/><path fill="#fe7302" d="M 185.78125 110.28125 C 186.074219 109.113281 186.316406 107.933594 186.515625 106.742188 C 188.078125 97.789062 187.253906 88.496094 184.0625 79.890625 C 179.394531 83.105469 176.332031 88.476562 176.332031 94.566406 C 176.332031 99.789062 178.59375 104.5 182.199219 107.765625 C 183.285156 108.734375 184.484375 109.585938 185.78125 110.28125 Z M 185.78125 110.28125 " fill-opacity="1" fill-rule="nonzero"/><path fill="#fe7302" d="M 135.824219 107.703125 C 140.410156 107.703125 144.589844 105.953125 147.742188 103.109375 C 151.34375 99.855469 153.617188 95.144531 153.617188 89.910156 C 153.617188 80.089844 145.632812 72.105469 135.824219 72.105469 C 126.019531 72.105469 118.023438 80.089844 118.023438 89.910156 C 118.023438 95.132812 120.289062 99.84375 123.902344 103.109375 C 127.0625 105.953125 131.242188 107.703125 135.824219 107.703125 Z M 135.824219 107.703125 " fill-opacity="1" fill-rule="nonzero"/><path fill="#fe7302" d="M 162.710938 120.058594 C 162.183594 119.449219 161.625 118.859375 161.054688 118.289062 C 157.589844 114.824219 153.40625 112.085938 148.878906 110.304688 C 145.105469 112.75 140.628906 114.148438 135.824219 114.148438 C 131.023438 114.148438 126.535156 112.738281 122.761719 110.304688 C 117.371094 112.410156 112.671875 115.75 108.984375 119.964844 C 107.519531 121.617188 106.222656 123.410156 105.097656 125.316406 C 103.199219 128.519531 101.800781 132.027344 100.96875 135.753906 C 101.378906 136.15625 101.800781 136.523438 102.222656 136.894531 C 102.453125 137.09375 102.695312 137.292969 102.9375 137.492188 C 103.296875 137.789062 103.652344 138.074219 104.011719 138.367188 C 105.085938 139.199219 106.140625 139.957031 107.214844 140.664062 L 107.226562 140.664062 C 107.867188 141.105469 108.457031 141.484375 109.046875 141.84375 C 109.089844 141.863281 109.121094 141.886719 109.164062 141.90625 C 109.4375 142.074219 109.691406 142.234375 109.933594 142.371094 C 109.941406 142.371094 109.953125 142.390625 109.964844 142.390625 C 110.238281 142.558594 110.5 142.707031 110.765625 142.84375 C 110.933594 142.941406 111.089844 143.023438 111.261719 143.109375 C 112.039062 143.550781 112.703125 143.898438 113.386719 144.226562 L 113.925781 144.476562 C 114.441406 144.71875 114.945312 144.953125 115.472656 145.171875 C 115.484375 145.171875 115.496094 145.183594 115.503906 145.183594 L 115.96875 145.371094 C 116.054688 145.40625 116.148438 145.445312 116.230469 145.476562 C 116.78125 145.710938 117.328125 145.929688 117.894531 146.132812 C 117.917969 146.140625 117.9375 146.140625 117.960938 146.152344 C 118.589844 146.394531 119.246094 146.605469 119.886719 146.816406 C 119.929688 146.828125 119.960938 146.835938 120.003906 146.847656 C 120.054688 146.867188 120.121094 146.890625 120.183594 146.910156 C 120.246094 146.933594 120.308594 146.953125 120.363281 146.972656 C 120.394531 146.972656 120.710938 147.078125 120.75 147.089844 C 121.445312 147.320312 122.132812 147.523438 122.804688 147.699219 C 123.710938 147.945312 124.597656 148.152344 125.449219 148.3125 L 125.523438 148.3125 C 125.523438 148.3125 128.144531 148.785156 128.144531 148.785156 C 128.390625 148.828125 128.632812 148.859375 128.875 148.890625 C 128.96875 148.902344 129.0625 148.921875 129.15625 148.933594 C 129.621094 148.996094 130.085938 149.050781 130.558594 149.089844 C 131.265625 149.164062 131.949219 149.230469 132.613281 149.261719 C 132.84375 149.269531 133.066406 149.292969 133.296875 149.300781 C 133.519531 149.3125 133.75 149.332031 133.972656 149.332031 C 134.183594 149.34375 134.394531 149.355469 134.605469 149.355469 L 134.613281 149.355469 C 135.371094 149.386719 136.101562 149.386719 136.804688 149.355469 L 137.175781 149.355469 C 137.363281 149.355469 137.554688 149.355469 137.742188 149.332031 L 137.839844 149.332031 C 137.996094 149.332031 138.152344 149.324219 138.324219 149.300781 C 138.777344 149.28125 139.230469 149.25 139.691406 149.21875 C 140.683594 149.144531 141.660156 149.039062 142.640625 148.914062 C 142.957031 148.871094 143.285156 148.828125 143.609375 148.777344 C 147.71875 148.164062 151.636719 147.078125 155.304688 145.53125 C 155.578125 145.425781 155.851562 145.300781 156.125 145.183594 C 156.746094 144.921875 157.285156 144.667969 157.832031 144.414062 L 158.285156 144.214844 L 158.371094 144.171875 C 159.414062 143.644531 160.507812 143.066406 161.59375 142.433594 C 161.886719 142.265625 162.171875 142.097656 162.46875 141.917969 C 162.910156 141.65625 163.339844 141.378906 163.785156 141.097656 C 165.523438 139.980469 167.207031 138.726562 168.828125 137.378906 C 169.113281 137.144531 169.398438 136.902344 169.683594 136.660156 C 169.808594 136.546875 169.9375 136.441406 170.0625 136.324219 C 170.15625 136.25 170.242188 136.164062 170.324219 136.09375 C 170.441406 135.988281 170.546875 135.890625 170.652344 135.785156 C 169.839844 132.109375 168.472656 128.632812 166.574219 125.429688 C 165.460938 123.535156 164.164062 121.734375 162.699219 120.058594 Z M 162.710938 120.058594 " fill-opacity="1" fill-rule="nonzero"/><path fill="#fe7302" d="M 87.789062 116.351562 C 88.8125 119.039062 90.066406 121.640625 91.550781 124.15625 C 92.203125 125.253906 92.898438 126.335938 93.636719 127.390625 C 93.890625 127.75 94.140625 128.097656 94.394531 128.445312 C 94.847656 129.054688 95.3125 129.667969 95.804688 130.257812 C 96.933594 126.832031 98.492188 123.597656 100.421875 120.617188 C 97.480469 118.164062 94.152344 116.171875 90.613281 114.78125 C 89.71875 115.371094 88.769531 115.898438 87.789062 116.351562 Z M 87.789062 116.351562 " fill-opacity="1" fill-rule="nonzero"/><path fill="#fe7302" d="M 95.34375 94.386719 C 95.34375 88.328125 92.296875 82.96875 87.664062 79.753906 L 87.652344 79.753906 C 87.503906 80.144531 87.367188 80.523438 87.242188 80.914062 C 87.125 81.261719 87.007812 81.597656 86.894531 81.945312 C 86.671875 82.628906 86.472656 83.324219 86.273438 84.019531 C 86.082031 84.714844 85.902344 85.421875 85.734375 86.117188 C 85.324219 87.875 85.007812 89.65625 84.785156 91.449219 C 84.703125 92.152344 84.628906 92.847656 84.566406 93.554688 L 84.566406 93.585938 C 84.503906 94.292969 84.460938 94.996094 84.429688 95.703125 C 84.335938 98.019531 84.386719 100.347656 84.609375 102.65625 C 84.617188 102.8125 84.628906 102.960938 84.648438 103.109375 C 84.765625 104.257812 84.925781 105.417969 85.113281 106.566406 C 85.25 107.363281 85.410156 108.175781 85.578125 108.976562 C 85.578125 108.988281 85.578125 108.996094 85.585938 108.996094 C 85.621094 109.1875 85.660156 109.378906 85.714844 109.554688 C 85.757812 109.746094 85.796875 109.933594 85.851562 110.125 C 87.15625 109.429688 88.378906 108.578125 89.464844 107.585938 C 93.078125 104.332031 95.34375 99.621094 95.34375 94.386719 Z M 95.34375 94.386719 " fill-opacity="1" fill-rule="nonzero"/><path fill="#fe7302" d="M 67.289062 108.914062 C 67.195312 108.34375 67.109375 107.777344 67.035156 107.207031 C 65.761719 97.714844 66.457031 87.992188 69.101562 78.722656 C 63.550781 81.746094 59.757812 87.632812 59.757812 94.386719 C 59.757812 99.621094 62.023438 104.320312 65.625 107.585938 C 66.152344 108.058594 66.710938 108.503906 67.289062 108.914062 Z M 67.289062 108.914062 " fill-opacity="1" fill-rule="nonzero"/><g clip-path="url(#8971f549cf)"><path fill="#fe7302" d="M 69.113281 117.109375 C 67.480469 116.5 65.929688 115.71875 64.488281 114.78125 C 53.40625 119.121094 45.242188 128.675781 42.703125 140.242188 C 43.335938 140.84375 43.988281 141.421875 44.660156 141.980469 C 46.117188 143.171875 47.515625 144.203125 48.949219 145.140625 C 49.644531 145.636719 50.253906 146.027344 50.898438 146.394531 C 51.667969 146.878906 52.332031 147.25 52.996094 147.597656 C 53.761719 148.027344 54.4375 148.386719 55.113281 148.703125 L 55.597656 148.921875 C 56.15625 149.1875 56.691406 149.4375 57.25 149.671875 L 57.734375 149.871094 C 58.386719 150.132812 59.019531 150.398438 59.703125 150.640625 C 60.378906 150.882812 61.0625 151.125 61.75 151.335938 C 61.863281 151.367188 61.96875 151.410156 62.085938 151.453125 C 62.128906 151.453125 62.445312 151.566406 62.484375 151.578125 C 64.085938 152.105469 65.667969 152.503906 67.195312 152.789062 L 69.882812 153.273438 C 71.082031 153.453125 72.367188 153.589844 73.652344 153.683594 C 74.664062 153.757812 75.496094 153.820312 76.347656 153.832031 L 78.910156 153.832031 C 79.730469 153.832031 80.582031 153.757812 81.425781 153.695312 C 82.765625 153.589844 84.050781 153.453125 85.355469 153.253906 C 87.652344 152.914062 89.894531 152.421875 92.054688 151.789062 C 90.277344 150.34375 88.546875 148.796875 86.894531 147.164062 C 78.191406 138.527344 72.261719 128.140625 69.113281 117.109375 Z M 69.113281 117.109375 " fill-opacity="1" fill-rule="nonzero"/></g><g fill="#ffffff" fill-opacity="1"><g transform="translate(250.313309, 125.98447)"><g><path d="M 21.53125 0 L 7.234375 0 L 7.234375 -65.640625 L 38.375 -65.640625 C 41.382812 -65.640625 44.109375 -65.140625 46.546875 -64.140625 C 48.992188 -63.140625 51.078125 -61.710938 52.796875 -59.859375 C 54.523438 -58.015625 55.859375 -55.804688 56.796875 -53.234375 C 57.742188 -50.660156 58.21875 -47.804688 58.21875 -44.671875 C 58.21875 -40.222656 57.226562 -36.335938 55.25 -33.015625 C 53.28125 -29.691406 50.285156 -27.273438 46.265625 -25.765625 L 59.15625 0 L 43.265625 0 L 31.78125 -24.078125 L 21.53125 -24.078125 Z M 36.578125 -36.109375 C 38.710938 -36.109375 40.390625 -36.65625 41.609375 -37.75 C 42.835938 -38.851562 43.453125 -40.472656 43.453125 -42.609375 L 43.453125 -46.734375 C 43.453125 -48.867188 42.835938 -50.484375 41.609375 -51.578125 C 40.390625 -52.679688 38.710938 -53.234375 36.578125 -53.234375 L 21.53125 -53.234375 L 21.53125 -36.109375 Z M 36.578125 -36.109375 "/></g></g></g><g fill="#ffffff" fill-opacity="1"><g transform="translate(307.953799, 125.98447)"><g><path d="M 27.078125 1.125 C 23.316406 1.125 19.960938 0.515625 17.015625 -0.703125 C 14.078125 -1.929688 11.585938 -3.65625 9.546875 -5.875 C 7.503906 -8.101562 5.96875 -10.816406 4.9375 -14.015625 C 3.90625 -17.210938 3.390625 -20.785156 3.390625 -24.734375 C 3.390625 -28.617188 3.890625 -32.144531 4.890625 -35.3125 C 5.890625 -38.476562 7.375 -41.1875 9.34375 -43.4375 C 11.320312 -45.695312 13.753906 -47.4375 16.640625 -48.65625 C 19.523438 -49.882812 22.816406 -50.5 26.515625 -50.5 C 30.597656 -50.5 34.09375 -49.804688 37 -48.421875 C 39.914062 -47.046875 42.296875 -45.195312 44.140625 -42.875 C 45.992188 -40.5625 47.34375 -37.882812 48.1875 -34.84375 C 49.039062 -31.800781 49.46875 -28.617188 49.46875 -25.296875 L 49.46875 -21.15625 L 17.78125 -21.15625 L 17.78125 -20.40625 C 17.78125 -17.144531 18.65625 -14.554688 20.40625 -12.640625 C 22.164062 -10.734375 24.925781 -9.78125 28.6875 -9.78125 C 31.570312 -9.78125 33.921875 -10.359375 35.734375 -11.515625 C 37.554688 -12.679688 39.25 -14.078125 40.8125 -15.703125 L 47.78125 -7.046875 C 45.582031 -4.484375 42.710938 -2.476562 39.171875 -1.03125 C 35.628906 0.40625 31.597656 1.125 27.078125 1.125 Z M 26.796875 -40.25 C 23.984375 -40.25 21.773438 -39.320312 20.171875 -37.46875 C 18.578125 -35.625 17.78125 -33.164062 17.78125 -30.09375 L 17.78125 -29.34375 L 35.078125 -29.34375 L 35.078125 -30.1875 C 35.078125 -33.195312 34.398438 -35.625 33.046875 -37.46875 C 31.703125 -39.320312 29.617188 -40.25 26.796875 -40.25 Z M 26.796875 -40.25 "/></g></g></g><g fill="#ffffff" fill-opacity="1"><g transform="translate(355.062783, 125.98447)"><g><path d="M 26.421875 1.125 C 22.722656 1.125 19.429688 0.515625 16.546875 -0.703125 C 13.660156 -1.929688 11.242188 -3.65625 9.296875 -5.875 C 7.359375 -8.101562 5.890625 -10.816406 4.890625 -14.015625 C 3.890625 -17.210938 3.390625 -20.785156 3.390625 -24.734375 C 3.390625 -28.679688 3.890625 -32.238281 4.890625 -35.40625 C 5.890625 -38.570312 7.359375 -41.28125 9.296875 -43.53125 C 11.242188 -45.789062 13.660156 -47.515625 16.546875 -48.703125 C 19.429688 -49.898438 22.722656 -50.5 26.421875 -50.5 C 31.441406 -50.5 35.628906 -49.367188 38.984375 -47.109375 C 42.335938 -44.859375 44.734375 -41.695312 46.171875 -37.625 L 34.890625 -32.734375 C 34.453125 -34.609375 33.539062 -36.203125 32.15625 -37.515625 C 30.78125 -38.835938 28.867188 -39.5 26.421875 -39.5 C 23.597656 -39.5 21.46875 -38.570312 20.03125 -36.71875 C 18.59375 -34.875 17.875 -32.382812 17.875 -29.25 L 17.875 -20.03125 C 17.875 -16.894531 18.59375 -14.414062 20.03125 -12.59375 C 21.46875 -10.78125 23.597656 -9.875 26.421875 -9.875 C 28.929688 -9.875 30.921875 -10.546875 32.390625 -11.890625 C 33.867188 -13.242188 34.953125 -15.015625 35.640625 -17.203125 L 46.453125 -12.515625 C 44.828125 -7.804688 42.304688 -4.351562 38.890625 -2.15625 C 35.472656 0.03125 31.316406 1.125 26.421875 1.125 Z M 26.421875 1.125 "/></g></g></g><g fill="#ffffff" fill-opacity="1"><g transform="translate(397.94036, 125.98447)"><g><path d="M 6.484375 0 L 6.484375 -49.375 L 20.40625 -49.375 L 20.40625 -38.65625 L 20.875 -38.65625 C 21.125 -40.03125 21.5625 -41.359375 22.1875 -42.640625 C 22.820312 -43.929688 23.65625 -45.078125 24.6875 -46.078125 C 25.71875 -47.085938 26.953125 -47.890625 28.390625 -48.484375 C 29.835938 -49.078125 31.535156 -49.375 33.484375 -49.375 L 35.921875 -49.375 L 35.921875 -36.390625 L 32.453125 -36.390625 C 28.367188 -36.390625 25.335938 -35.859375 23.359375 -34.796875 C 21.390625 -33.734375 20.40625 -31.757812 20.40625 -28.875 L 20.40625 0 Z M 6.484375 0 "/></g></g></g><g fill="#ffffff" fill-opacity="1"><g transform="translate(430.192406, 125.98447)"><g><path d="M 35.640625 -8.28125 L 35.171875 -8.28125 C 34.734375 -7.019531 34.15625 -5.828125 33.4375 -4.703125 C 32.71875 -3.578125 31.789062 -2.570312 30.65625 -1.6875 C 29.53125 -0.8125 28.195312 -0.125 26.65625 0.375 C 25.125 0.875 23.351562 1.125 21.34375 1.125 C 16.269531 1.125 12.429688 -0.550781 9.828125 -3.90625 C 7.222656 -7.257812 5.921875 -12.070312 5.921875 -18.34375 L 5.921875 -49.375 L 19.84375 -49.375 L 19.84375 -19.5625 C 19.84375 -16.550781 20.375 -14.226562 21.4375 -12.59375 C 22.507812 -10.96875 24.328125 -10.15625 26.890625 -10.15625 C 27.960938 -10.15625 29.03125 -10.3125 30.09375 -10.625 C 31.15625 -10.9375 32.09375 -11.390625 32.90625 -11.984375 C 33.726562 -12.585938 34.390625 -13.328125 34.890625 -14.203125 C 35.390625 -15.078125 35.640625 -16.109375 35.640625 -17.296875 L 35.640625 -49.375 L 49.5625 -49.375 L 49.5625 0 L 35.640625 0 Z M 35.640625 -8.28125 "/></g></g></g><g fill="#ffffff" fill-opacity="1"><g transform="translate(480.498458, 125.98447)"><g><path d="M 13.453125 -54.640625 C 10.628906 -54.640625 8.570312 -55.28125 7.28125 -56.5625 C 6 -57.851562 5.359375 -59.5 5.359375 -61.5 L 5.359375 -63.578125 C 5.359375 -65.578125 6 -67.21875 7.28125 -68.5 C 8.570312 -69.789062 10.628906 -70.4375 13.453125 -70.4375 C 16.273438 -70.4375 18.328125 -69.789062 19.609375 -68.5 C 20.890625 -67.21875 21.53125 -65.578125 21.53125 -63.578125 L 21.53125 -61.5 C 21.53125 -59.5 20.890625 -57.851562 19.609375 -56.5625 C 18.328125 -55.28125 16.273438 -54.640625 13.453125 -54.640625 Z M 6.484375 -49.375 L 20.40625 -49.375 L 20.40625 0 L 6.484375 0 Z M 6.484375 -49.375 "/></g></g></g><g fill="#ffffff" fill-opacity="1"><g transform="translate(501.654806, 125.98447)"><g><path d="M 23.796875 0 C 18.960938 0 15.304688 -1.21875 12.828125 -3.65625 C 10.359375 -6.101562 9.125 -9.679688 9.125 -14.390625 L 9.125 -38.5625 L 2.15625 -38.5625 L 2.15625 -49.375 L 5.640625 -49.375 C 7.523438 -49.375 8.8125 -49.828125 9.5 -50.734375 C 10.1875 -51.648438 10.53125 -52.953125 10.53125 -54.640625 L 10.53125 -62.734375 L 23.046875 -62.734375 L 23.046875 -49.375 L 32.828125 -49.375 L 32.828125 -38.5625 L 23.046875 -38.5625 L 23.046875 -10.8125 L 32.0625 -10.8125 L 32.0625 0 Z M 23.796875 0 "/></g></g></g><g fill="#fe7302" fill-opacity="1"><g transform="translate(531.938298, 125.98447)"><g><path d="M 7.234375 0 L 7.234375 -65.640625 L 50.78125 -65.640625 L 50.78125 -52.953125 L 21.53125 -52.953125 L 21.53125 -39.5 L 46.453125 -39.5 L 46.453125 -26.890625 L 21.53125 -26.890625 L 21.53125 0 Z M 7.234375 0 "/></g></g></g><g fill="#fe7302" fill-opacity="1"><g transform="translate(581.209997, 125.98447)"><g><path d="M 20.3125 0 C 15.550781 0 12.054688 -1.15625 9.828125 -3.46875 C 7.597656 -5.789062 6.484375 -9.148438 6.484375 -13.546875 L 6.484375 -69.59375 L 20.40625 -69.59375 L 20.40625 -10.8125 L 26.609375 -10.8125 L 26.609375 0 Z M 20.3125 0 "/></g></g></g><g fill="#fe7302" fill-opacity="1"><g transform="translate(603.964879, 125.98447)"><g><path d="M 26.515625 1.125 C 22.878906 1.125 19.632812 0.53125 16.78125 -0.65625 C 13.9375 -1.84375 11.523438 -3.566406 9.546875 -5.828125 C 7.566406 -8.085938 6.046875 -10.816406 4.984375 -14.015625 C 3.921875 -17.210938 3.390625 -20.785156 3.390625 -24.734375 C 3.390625 -28.679688 3.921875 -32.253906 4.984375 -35.453125 C 6.046875 -38.648438 7.566406 -41.359375 9.546875 -43.578125 C 11.523438 -45.804688 13.9375 -47.515625 16.78125 -48.703125 C 19.632812 -49.898438 22.878906 -50.5 26.515625 -50.5 C 30.148438 -50.5 33.394531 -49.898438 36.25 -48.703125 C 39.101562 -47.515625 41.515625 -45.804688 43.484375 -43.578125 C 45.460938 -41.359375 46.984375 -38.648438 48.046875 -35.453125 C 49.117188 -32.253906 49.65625 -28.679688 49.65625 -24.734375 C 49.65625 -20.785156 49.117188 -17.210938 48.046875 -14.015625 C 46.984375 -10.816406 45.460938 -8.085938 43.484375 -5.828125 C 41.515625 -3.566406 39.101562 -1.84375 36.25 -0.65625 C 33.394531 0.53125 30.148438 1.125 26.515625 1.125 Z M 26.515625 -9.875 C 29.273438 -9.875 31.40625 -10.71875 32.90625 -12.40625 C 34.414062 -14.101562 35.171875 -16.519531 35.171875 -19.65625 L 35.171875 -29.71875 C 35.171875 -32.851562 34.414062 -35.265625 32.90625 -36.953125 C 31.40625 -38.648438 29.273438 -39.5 26.515625 -39.5 C 23.765625 -39.5 21.632812 -38.648438 20.125 -36.953125 C 18.625 -35.265625 17.875 -32.851562 17.875 -29.71875 L 17.875 -19.65625 C 17.875 -16.519531 18.625 -14.101562 20.125 -12.40625 C 21.632812 -10.71875 23.765625 -9.875 26.515625 -9.875 Z M 26.515625 -9.875 "/></g></g></g><g fill="#fe7302" fill-opacity="1"><g transform="translate(651.261924, 125.98447)"><g><path d="M 1.78125 -49.375 L 15.234375 -49.375 L 20.03125 -29.4375 L 23.421875 -14.390625 L 23.796875 -14.390625 L 27.75 -29.4375 L 33.390625 -49.375 L 46.078125 -49.375 L 51.8125 -29.4375 L 55.859375 -14.390625 L 56.234375 -14.390625 L 59.625 -29.4375 L 64.421875 -49.375 L 77.3125 -49.375 L 63.671875 0 L 49.09375 0 L 43.078125 -20.875 L 39.59375 -33.671875 L 39.3125 -33.671875 L 35.921875 -20.875 L 29.90625 0 L 15.609375 0 Z M 1.78125 -49.375 "/></g></g></g><g fill="#ffffff" fill-opacity="1"><g transform="translate(251.58649, 174.79535)"><g><path d="M 13.625 0 L 1.078125 -37.734375 L 5.953125 -37.734375 L 12.171875 -18.703125 L 16.328125 -4.546875 L 16.59375 -4.546875 L 20.875 -18.703125 L 27.140625 -37.734375 L 31.84375 -37.734375 L 19.140625 0 Z M 13.625 0 "/></g></g></g><g fill="#ffffff" fill-opacity="1"><g transform="translate(281.208088, 174.79535)"><g><path d="M 15.078125 0.65625 C 13.171875 0.65625 11.453125 0.3125 9.921875 -0.375 C 8.390625 -1.0625 7.070312 -2.046875 5.96875 -3.328125 C 4.875 -4.609375 4.03125 -6.140625 3.4375 -7.921875 C 2.84375 -9.703125 2.546875 -11.710938 2.546875 -13.953125 C 2.546875 -16.148438 2.84375 -18.148438 3.4375 -19.953125 C 4.03125 -21.753906 4.875 -23.289062 5.96875 -24.5625 C 7.070312 -25.84375 8.390625 -26.828125 9.921875 -27.515625 C 11.453125 -28.203125 13.171875 -28.546875 15.078125 -28.546875 C 16.953125 -28.546875 18.628906 -28.203125 20.109375 -27.515625 C 21.585938 -26.828125 22.847656 -25.878906 23.890625 -24.671875 C 24.941406 -23.472656 25.742188 -22.039062 26.296875 -20.375 C 26.859375 -18.71875 27.140625 -16.898438 27.140625 -14.921875 L 27.140625 -12.859375 L 7.078125 -12.859375 L 7.078125 -11.5625 C 7.078125 -10.375 7.265625 -9.265625 7.640625 -8.234375 C 8.023438 -7.210938 8.566406 -6.320312 9.265625 -5.5625 C 9.972656 -4.8125 10.835938 -4.21875 11.859375 -3.78125 C 12.890625 -3.351562 14.054688 -3.140625 15.359375 -3.140625 C 17.117188 -3.140625 18.65625 -3.550781 19.96875 -4.375 C 21.289062 -5.207031 22.3125 -6.398438 23.03125 -7.953125 L 26.109375 -5.734375 C 25.210938 -3.816406 23.804688 -2.269531 21.890625 -1.09375 C 19.984375 0.0703125 17.710938 0.65625 15.078125 0.65625 Z M 15.078125 -24.921875 C 13.890625 -24.921875 12.804688 -24.710938 11.828125 -24.296875 C 10.859375 -23.878906 10.019531 -23.289062 9.3125 -22.53125 C 8.613281 -21.78125 8.066406 -20.890625 7.671875 -19.859375 C 7.273438 -18.835938 7.078125 -17.710938 7.078125 -16.484375 L 7.078125 -16.109375 L 22.484375 -16.109375 L 22.484375 -16.703125 C 22.484375 -19.191406 21.804688 -21.179688 20.453125 -22.671875 C 19.109375 -24.171875 17.316406 -24.921875 15.078125 -24.921875 Z M 15.078125 -24.921875 "/></g></g></g><g fill="#ffffff" fill-opacity="1"><g transform="translate(307.586308, 174.79535)"><g><path d="M 4.59375 0 L 4.59375 -27.890625 L 8.921875 -27.890625 L 8.921875 -23.359375 L 9.140625 -23.359375 C 9.816406 -24.941406 10.773438 -26.203125 12.015625 -27.140625 C 13.265625 -28.078125 14.9375 -28.546875 17.03125 -28.546875 C 19.914062 -28.546875 22.191406 -27.617188 23.859375 -25.765625 C 25.535156 -23.910156 26.375 -21.285156 26.375 -17.890625 L 26.375 0 L 22.0625 0 L 22.0625 -17.140625 C 22.0625 -22.148438 19.953125 -24.65625 15.734375 -24.65625 C 14.867188 -24.65625 14.03125 -24.546875 13.21875 -24.328125 C 12.40625 -24.109375 11.675781 -23.78125 11.03125 -23.34375 C 10.382812 -22.914062 9.867188 -22.367188 9.484375 -21.703125 C 9.109375 -21.035156 8.921875 -20.253906 8.921875 -19.359375 L 8.921875 0 Z M 4.59375 0 "/></g></g></g><g fill="#ffffff" fill-opacity="1"><g transform="translate(334.991597, 174.79535)"><g><path d="M 22.4375 -4.546875 L 22.21875 -4.546875 C 20.519531 -1.078125 17.800781 0.65625 14.0625 0.65625 C 12.332031 0.65625 10.765625 0.3125 9.359375 -0.375 C 7.953125 -1.0625 6.75 -2.035156 5.75 -3.296875 C 4.757812 -4.554688 4.003906 -6.085938 3.484375 -7.890625 C 2.960938 -9.691406 2.703125 -11.710938 2.703125 -13.953125 C 2.703125 -16.179688 2.960938 -18.195312 3.484375 -20 C 4.003906 -21.800781 4.757812 -23.332031 5.75 -24.59375 C 6.75 -25.851562 7.953125 -26.828125 9.359375 -27.515625 C 10.765625 -28.203125 12.332031 -28.546875 14.0625 -28.546875 C 16 -28.546875 17.660156 -28.117188 19.046875 -27.265625 C 20.441406 -26.421875 21.5 -25.117188 22.21875 -23.359375 L 22.4375 -23.359375 L 22.4375 -40 L 26.765625 -40 L 26.765625 0 L 22.4375 0 Z M 15.25 -3.25 C 16.21875 -3.25 17.144531 -3.375 18.03125 -3.625 C 18.914062 -3.875 19.679688 -4.238281 20.328125 -4.71875 C 20.972656 -5.207031 21.484375 -5.800781 21.859375 -6.5 C 22.242188 -7.207031 22.4375 -8.015625 22.4375 -8.921875 L 22.4375 -19.296875 C 22.4375 -20.054688 22.242188 -20.769531 21.859375 -21.4375 C 21.484375 -22.101562 20.972656 -22.671875 20.328125 -23.140625 C 19.679688 -23.609375 18.914062 -23.976562 18.03125 -24.25 C 17.144531 -24.519531 16.21875 -24.65625 15.25 -24.65625 C 12.789062 -24.65625 10.859375 -23.890625 9.453125 -22.359375 C 8.054688 -20.828125 7.359375 -18.816406 7.359375 -16.328125 L 7.359375 -11.5625 C 7.359375 -9.082031 8.054688 -7.078125 9.453125 -5.546875 C 10.859375 -4.015625 12.789062 -3.25 15.25 -3.25 Z M 15.25 -3.25 "/></g></g></g><g fill="#ffffff" fill-opacity="1"><g transform="translate(363.045563, 174.79535)"><g><path d="M 6.765625 -34.4375 C 5.828125 -34.4375 5.148438 -34.660156 4.734375 -35.109375 C 4.316406 -35.566406 4.109375 -36.15625 4.109375 -36.875 L 4.109375 -37.578125 C 4.109375 -38.296875 4.316406 -38.878906 4.734375 -39.328125 C 5.148438 -39.773438 5.828125 -40 6.765625 -40 C 7.691406 -40 8.363281 -39.773438 8.78125 -39.328125 C 9.195312 -38.878906 9.40625 -38.296875 9.40625 -37.578125 L 9.40625 -36.875 C 9.40625 -36.15625 9.195312 -35.566406 8.78125 -35.109375 C 8.363281 -34.660156 7.691406 -34.4375 6.765625 -34.4375 Z M 4.59375 -27.890625 L 8.921875 -27.890625 L 8.921875 0 L 4.59375 0 Z M 4.59375 -27.890625 "/></g></g></g><g fill="#ffffff" fill-opacity="1"><g transform="translate(373.260998, 174.79535)"><g><path d="M 10.765625 0 C 9.242188 0 8.09375 -0.421875 7.3125 -1.265625 C 6.539062 -2.117188 6.15625 -3.226562 6.15625 -4.59375 L 6.15625 -24.109375 L 1.5625 -24.109375 L 1.5625 -27.890625 L 4.15625 -27.890625 C 5.09375 -27.890625 5.734375 -28.078125 6.078125 -28.453125 C 6.421875 -28.835938 6.59375 -29.5 6.59375 -30.4375 L 6.59375 -35.625 L 10.484375 -35.625 L 10.484375 -27.890625 L 16.59375 -27.890625 L 16.59375 -24.109375 L 10.484375 -24.109375 L 10.484375 -3.78125 L 16.171875 -3.78125 L 16.171875 0 Z M 10.765625 0 "/></g></g></g><g fill="#ffffff" fill-opacity="1"><g transform="translate(388.936119, 174.79535)"><g><path d="M 15.140625 0.65625 C 13.265625 0.65625 11.550781 0.3125 10 -0.375 C 8.445312 -1.0625 7.117188 -2.046875 6.015625 -3.328125 C 4.921875 -4.609375 4.066406 -6.140625 3.453125 -7.921875 C 2.847656 -9.703125 2.546875 -11.710938 2.546875 -13.953125 C 2.546875 -16.148438 2.847656 -18.148438 3.453125 -19.953125 C 4.066406 -21.753906 4.921875 -23.289062 6.015625 -24.5625 C 7.117188 -25.84375 8.445312 -26.828125 10 -27.515625 C 11.550781 -28.203125 13.265625 -28.546875 15.140625 -28.546875 C 17.015625 -28.546875 18.71875 -28.203125 20.25 -27.515625 C 21.78125 -26.828125 23.101562 -25.84375 24.21875 -24.5625 C 25.332031 -23.289062 26.195312 -21.753906 26.8125 -19.953125 C 27.425781 -18.148438 27.734375 -16.148438 27.734375 -13.953125 C 27.734375 -11.710938 27.425781 -9.703125 26.8125 -7.921875 C 26.195312 -6.140625 25.332031 -4.609375 24.21875 -3.328125 C 23.101562 -2.046875 21.78125 -1.0625 20.25 -0.375 C 18.71875 0.3125 17.015625 0.65625 15.140625 0.65625 Z M 15.140625 -3.1875 C 17.484375 -3.1875 19.390625 -3.90625 20.859375 -5.34375 C 22.335938 -6.789062 23.078125 -8.992188 23.078125 -11.953125 L 23.078125 -15.953125 C 23.078125 -18.898438 22.335938 -21.09375 20.859375 -22.53125 C 19.390625 -23.976562 17.484375 -24.703125 15.140625 -24.703125 C 12.796875 -24.703125 10.882812 -23.976562 9.40625 -22.53125 C 7.925781 -21.09375 7.1875 -18.898438 7.1875 -15.953125 L 7.1875 -11.953125 C 7.1875 -8.992188 7.925781 -6.789062 9.40625 -5.34375 C 10.882812 -3.90625 12.796875 -3.1875 15.140625 -3.1875 Z M 15.140625 -3.1875 "/></g></g></g><g fill="#ffffff" fill-opacity="1"><g transform="translate(415.908986, 174.79535)"><g><path d="M 4.59375 0 L 4.59375 -27.890625 L 8.921875 -27.890625 L 8.921875 -22.765625 L 9.1875 -22.765625 C 9.695312 -24.097656 10.597656 -25.285156 11.890625 -26.328125 C 13.191406 -27.367188 14.976562 -27.890625 17.25 -27.890625 L 18.921875 -27.890625 L 18.921875 -23.578125 L 16.375 -23.578125 C 14.03125 -23.578125 12.203125 -23.132812 10.890625 -22.25 C 9.578125 -21.363281 8.921875 -20.253906 8.921875 -18.921875 L 8.921875 0 Z M 4.59375 0 "/></g></g></g><g fill="#ffffff" fill-opacity="1"><g transform="translate(432.448992, 174.79535)"><g><path d="M 6.765625 -34.4375 C 5.828125 -34.4375 5.148438 -34.660156 4.734375 -35.109375 C 4.316406 -35.566406 4.109375 -36.15625 4.109375 -36.875 L 4.109375 -37.578125 C 4.109375 -38.296875 4.316406 -38.878906 4.734375 -39.328125 C 5.148438 -39.773438 5.828125 -40 6.765625 -40 C 7.691406 -40 8.363281 -39.773438 8.78125 -39.328125 C 9.195312 -38.878906 9.40625 -38.296875 9.40625 -37.578125 L 9.40625 -36.875 C 9.40625 -36.15625 9.195312 -35.566406 8.78125 -35.109375 C 8.363281 -34.660156 7.691406 -34.4375 6.765625 -34.4375 Z M 4.59375 -27.890625 L 8.921875 -27.890625 L 8.921875 0 L 4.59375 0 Z M 4.59375 -27.890625 "/></g></g></g><g fill="#ffffff" fill-opacity="1"><g transform="translate(442.664427, 174.79535)"><g/></g></g><g fill="#ffffff" fill-opacity="1"><g transform="translate(452.123085, 174.79535)"><g><path d="M 14.96875 0.65625 C 13.03125 0.65625 11.285156 0.3125 9.734375 -0.375 C 8.179688 -1.0625 6.875 -2.035156 5.8125 -3.296875 C 4.75 -4.554688 3.9375 -6.085938 3.375 -7.890625 C 2.820312 -9.691406 2.546875 -11.710938 2.546875 -13.953125 C 2.546875 -16.179688 2.820312 -18.195312 3.375 -20 C 3.9375 -21.800781 4.75 -23.332031 5.8125 -24.59375 C 6.875 -25.851562 8.179688 -26.828125 9.734375 -27.515625 C 11.285156 -28.203125 13.03125 -28.546875 14.96875 -28.546875 C 17.75 -28.546875 19.976562 -27.941406 21.65625 -26.734375 C 23.332031 -25.523438 24.582031 -23.945312 25.40625 -22 L 21.78125 -20.171875 C 21.28125 -21.609375 20.453125 -22.722656 19.296875 -23.515625 C 18.148438 -24.304688 16.707031 -24.703125 14.96875 -24.703125 C 13.675781 -24.703125 12.539062 -24.492188 11.5625 -24.078125 C 10.59375 -23.671875 9.78125 -23.097656 9.125 -22.359375 C 8.476562 -21.617188 7.992188 -20.734375 7.671875 -19.703125 C 7.347656 -18.679688 7.1875 -17.554688 7.1875 -16.328125 L 7.1875 -11.5625 C 7.1875 -9.113281 7.84375 -7.101562 9.15625 -5.53125 C 10.476562 -3.96875 12.414062 -3.1875 14.96875 -3.1875 C 18.46875 -3.1875 20.992188 -4.8125 22.546875 -8.0625 L 25.6875 -5.953125 C 24.78125 -3.929688 23.429688 -2.320312 21.640625 -1.125 C 19.859375 0.0625 17.632812 0.65625 14.96875 0.65625 Z M 14.96875 0.65625 "/></g></g></g><g fill="#ffffff" fill-opacity="1"><g transform="translate(476.014734, 174.79535)"><g><path d="M 4.59375 -40 L 8.921875 -40 L 8.921875 -23.359375 L 9.140625 -23.359375 C 9.816406 -24.941406 10.773438 -26.203125 12.015625 -27.140625 C 13.265625 -28.078125 14.9375 -28.546875 17.03125 -28.546875 C 19.914062 -28.546875 22.191406 -27.617188 23.859375 -25.765625 C 25.535156 -23.910156 26.375 -21.285156 26.375 -17.890625 L 26.375 0 L 22.0625 0 L 22.0625 -17.140625 C 22.0625 -22.148438 19.953125 -24.65625 15.734375 -24.65625 C 14.867188 -24.65625 14.03125 -24.546875 13.21875 -24.328125 C 12.40625 -24.109375 11.675781 -23.78125 11.03125 -23.34375 C 10.382812 -22.914062 9.867188 -22.367188 9.484375 -21.703125 C 9.109375 -21.035156 8.921875 -20.253906 8.921875 -19.359375 L 8.921875 0 L 4.59375 0 Z M 4.59375 -40 "/></g></g></g><g fill="#ffffff" fill-opacity="1"><g transform="translate(503.420016, 174.79535)"><g><path d="M 15.078125 0.65625 C 13.171875 0.65625 11.453125 0.3125 9.921875 -0.375 C 8.390625 -1.0625 7.070312 -2.046875 5.96875 -3.328125 C 4.875 -4.609375 4.03125 -6.140625 3.4375 -7.921875 C 2.84375 -9.703125 2.546875 -11.710938 2.546875 -13.953125 C 2.546875 -16.148438 2.84375 -18.148438 3.4375 -19.953125 C 4.03125 -21.753906 4.875 -23.289062 5.96875 -24.5625 C 7.070312 -25.84375 8.390625 -26.828125 9.921875 -27.515625 C 11.453125 -28.203125 13.171875 -28.546875 15.078125 -28.546875 C 16.953125 -28.546875 18.628906 -28.203125 20.109375 -27.515625 C 21.585938 -26.828125 22.847656 -25.878906 23.890625 -24.671875 C 24.941406 -23.472656 25.742188 -22.039062 26.296875 -20.375 C 26.859375 -18.71875 27.140625 -16.898438 27.140625 -14.921875 L 27.140625 -12.859375 L 7.078125 -12.859375 L 7.078125 -11.5625 C 7.078125 -10.375 7.265625 -9.265625 7.640625 -8.234375 C 8.023438 -7.210938 8.566406 -6.320312 9.265625 -5.5625 C 9.972656 -4.8125 10.835938 -4.21875 11.859375 -3.78125 C 12.890625 -3.351562 14.054688 -3.140625 15.359375 -3.140625 C 17.117188 -3.140625 18.65625 -3.550781 19.96875 -4.375 C 21.289062 -5.207031 22.3125 -6.398438 23.03125 -7.953125 L 26.109375 -5.734375 C 25.210938 -3.816406 23.804688 -2.269531 21.890625 -1.09375 C 19.984375 0.0703125 17.710938 0.65625 15.078125 0.65625 Z M 15.078125 -24.921875 C 13.890625 -24.921875 12.804688 -24.710938 11.828125 -24.296875 C 10.859375 -23.878906 10.019531 -23.289062 9.3125 -22.53125 C 8.613281 -21.78125 8.066406 -20.890625 7.671875 -19.859375 C 7.273438 -18.835938 7.078125 -17.710938 7.078125 -16.484375 L 7.078125 -16.109375 L 22.484375 -16.109375 L 22.484375 -16.703125 C 22.484375 -19.191406 21.804688 -21.179688 20.453125 -22.671875 C 19.109375 -24.171875 17.316406 -24.921875 15.078125 -24.921875 Z M 15.078125 -24.921875 "/></g></g></g><g fill="#ffffff" fill-opacity="1"><g transform="translate(529.798239, 174.79535)"><g/></g></g><g fill="#ffffff" fill-opacity="1"><g transform="translate(539.256897, 174.79535)"><g><path d="M 10.765625 0 L 0.96875 -27.890625 L 5.296875 -27.890625 L 10.15625 -14.0625 L 13.1875 -4.546875 L 13.46875 -4.546875 L 16.484375 -14.0625 L 21.46875 -27.890625 L 25.625 -27.890625 L 15.78125 0 Z M 10.765625 0 "/></g></g></g><g fill="#ffffff" fill-opacity="1"><g transform="translate(562.553929, 174.79535)"><g><path d="M 15.078125 0.65625 C 13.171875 0.65625 11.453125 0.3125 9.921875 -0.375 C 8.390625 -1.0625 7.070312 -2.046875 5.96875 -3.328125 C 4.875 -4.609375 4.03125 -6.140625 3.4375 -7.921875 C 2.84375 -9.703125 2.546875 -11.710938 2.546875 -13.953125 C 2.546875 -16.148438 2.84375 -18.148438 3.4375 -19.953125 C 4.03125 -21.753906 4.875 -23.289062 5.96875 -24.5625 C 7.070312 -25.84375 8.390625 -26.828125 9.921875 -27.515625 C 11.453125 -28.203125 13.171875 -28.546875 15.078125 -28.546875 C 16.953125 -28.546875 18.628906 -28.203125 20.109375 -27.515625 C 21.585938 -26.828125 22.847656 -25.878906 23.890625 -24.671875 C 24.941406 -23.472656 25.742188 -22.039062 26.296875 -20.375 C 26.859375 -18.71875 27.140625 -16.898438 27.140625 -14.921875 L 27.140625 -12.859375 L 7.078125 -12.859375 L 7.078125 -11.5625 C 7.078125 -10.375 7.265625 -9.265625 7.640625 -8.234375 C 8.023438 -7.210938 8.566406 -6.320312 9.265625 -5.5625 C 9.972656 -4.8125 10.835938 -4.21875 11.859375 -3.78125 C 12.890625 -3.351562 14.054688 -3.140625 15.359375 -3.140625 C 17.117188 -3.140625 18.65625 -3.550781 19.96875 -4.375 C 21.289062 -5.207031 22.3125 -6.398438 23.03125 -7.953125 L 26.109375 -5.734375 C 25.210938 -3.816406 23.804688 -2.269531 21.890625 -1.09375 C 19.984375 0.0703125 17.710938 0.65625 15.078125 0.65625 Z M 15.078125 -24.921875 C 13.890625 -24.921875 12.804688 -24.710938 11.828125 -24.296875 C 10.859375 -23.878906 10.019531 -23.289062 9.3125 -22.53125 C 8.613281 -21.78125 8.066406 -20.890625 7.671875 -19.859375 C 7.273438 -18.835938 7.078125 -17.710938 7.078125 -16.484375 L 7.078125 -16.109375 L 22.484375 -16.109375 L 22.484375 -16.703125 C 22.484375 -19.191406 21.804688 -21.179688 20.453125 -22.671875 C 19.109375 -24.171875 17.316406 -24.921875 15.078125 -24.921875 Z M 15.078125 -24.921875 "/></g></g></g><g fill="#ffffff" fill-opacity="1"><g transform="translate(588.932152, 174.79535)"><g><path d="M 4.59375 0 L 4.59375 -27.890625 L 8.921875 -27.890625 L 8.921875 -23.359375 L 9.140625 -23.359375 C 9.816406 -24.941406 10.773438 -26.203125 12.015625 -27.140625 C 13.265625 -28.078125 14.9375 -28.546875 17.03125 -28.546875 C 19.914062 -28.546875 22.191406 -27.617188 23.859375 -25.765625 C 25.535156 -23.910156 26.375 -21.285156 26.375 -17.890625 L 26.375 0 L 22.0625 0 L 22.0625 -17.140625 C 22.0625 -22.148438 19.953125 -24.65625 15.734375 -24.65625 C 14.867188 -24.65625 14.03125 -24.546875 13.21875 -24.328125 C 12.40625 -24.109375 11.675781 -23.78125 11.03125 -23.34375 C 10.382812 -22.914062 9.867188 -22.367188 9.484375 -21.703125 C 9.109375 -21.035156 8.921875 -20.253906 8.921875 -19.359375 L 8.921875 0 Z M 4.59375 0 "/></g></g></g><g fill="#ffffff" fill-opacity="1"><g transform="translate(616.337448, 174.79535)"><g><path d="M 22.4375 -4.546875 L 22.21875 -4.546875 C 20.519531 -1.078125 17.800781 0.65625 14.0625 0.65625 C 12.332031 0.65625 10.765625 0.3125 9.359375 -0.375 C 7.953125 -1.0625 6.75 -2.035156 5.75 -3.296875 C 4.757812 -4.554688 4.003906 -6.085938 3.484375 -7.890625 C 2.960938 -9.691406 2.703125 -11.710938 2.703125 -13.953125 C 2.703125 -16.179688 2.960938 -18.195312 3.484375 -20 C 4.003906 -21.800781 4.757812 -23.332031 5.75 -24.59375 C 6.75 -25.851562 7.953125 -26.828125 9.359375 -27.515625 C 10.765625 -28.203125 12.332031 -28.546875 14.0625 -28.546875 C 16 -28.546875 17.660156 -28.117188 19.046875 -27.265625 C 20.441406 -26.421875 21.5 -25.117188 22.21875 -23.359375 L 22.4375 -23.359375 L 22.4375 -40 L 26.765625 -40 L 26.765625 0 L 22.4375 0 Z M 15.25 -3.25 C 16.21875 -3.25 17.144531 -3.375 18.03125 -3.625 C 18.914062 -3.875 19.679688 -4.238281 20.328125 -4.71875 C 20.972656 -5.207031 21.484375 -5.800781 21.859375 -6.5 C 22.242188 -7.207031 22.4375 -8.015625 22.4375 -8.921875 L 22.4375 -19.296875 C 22.4375 -20.054688 22.242188 -20.769531 21.859375 -21.4375 C 21.484375 -22.101562 20.972656 -22.671875 20.328125 -23.140625 C 19.679688 -23.609375 18.914062 -23.976562 18.03125 -24.25 C 17.144531 -24.519531 16.21875 -24.65625 15.25 -24.65625 C 12.789062 -24.65625 10.859375 -23.890625 9.453125 -22.359375 C 8.054688 -20.828125 7.359375 -18.816406 7.359375 -16.328125 L 7.359375 -11.5625 C 7.359375 -9.082031 8.054688 -7.078125 9.453125 -5.546875 C 10.859375 -4.015625 12.789062 -3.25 15.25 -3.25 Z M 15.25 -3.25 "/></g></g></g><g fill="#ffffff" fill-opacity="1"><g transform="translate(644.391414, 174.79535)"><g><path d="M 15.140625 0.65625 C 13.265625 0.65625 11.550781 0.3125 10 -0.375 C 8.445312 -1.0625 7.117188 -2.046875 6.015625 -3.328125 C 4.921875 -4.609375 4.066406 -6.140625 3.453125 -7.921875 C 2.847656 -9.703125 2.546875 -11.710938 2.546875 -13.953125 C 2.546875 -16.148438 2.847656 -18.148438 3.453125 -19.953125 C 4.066406 -21.753906 4.921875 -23.289062 6.015625 -24.5625 C 7.117188 -25.84375 8.445312 -26.828125 10 -27.515625 C 11.550781 -28.203125 13.265625 -28.546875 15.140625 -28.546875 C 17.015625 -28.546875 18.71875 -28.203125 20.25 -27.515625 C 21.78125 -26.828125 23.101562 -25.84375 24.21875 -24.5625 C 25.332031 -23.289062 26.195312 -21.753906 26.8125 -19.953125 C 27.425781 -18.148438 27.734375 -16.148438 27.734375 -13.953125 C 27.734375 -11.710938 27.425781 -9.703125 26.8125 -7.921875 C 26.195312 -6.140625 25.332031 -4.609375 24.21875 -3.328125 C 23.101562 -2.046875 21.78125 -1.0625 20.25 -0.375 C 18.71875 0.3125 17.015625 0.65625 15.140625 0.65625 Z M 15.140625 -3.1875 C 17.484375 -3.1875 19.390625 -3.90625 20.859375 -5.34375 C 22.335938 -6.789062 23.078125 -8.992188 23.078125 -11.953125 L 23.078125 -15.953125 C 23.078125 -18.898438 22.335938 -21.09375 20.859375 -22.53125 C 19.390625 -23.976562 17.484375 -24.703125 15.140625 -24.703125 C 12.796875 -24.703125 10.882812 -23.976562 9.40625 -22.53125 C 7.925781 -21.09375 7.1875 -18.898438 7.1875 -15.953125 L 7.1875 -11.953125 C 7.1875 -8.992188 7.925781 -6.789062 9.40625 -5.34375 C 10.882812 -3.90625 12.796875 -3.1875 15.140625 -3.1875 Z M 15.140625 -3.1875 "/></g></g></g><g fill="#ffffff" fill-opacity="1"><g transform="translate(671.364281, 174.79535)"><g><path d="M 4.59375 0 L 4.59375 -27.890625 L 8.921875 -27.890625 L 8.921875 -23.359375 L 9.140625 -23.359375 C 9.816406 -24.941406 10.773438 -26.203125 12.015625 -27.140625 C 13.265625 -28.078125 14.9375 -28.546875 17.03125 -28.546875 C 19.914062 -28.546875 22.191406 -27.617188 23.859375 -25.765625 C 25.535156 -23.910156 26.375 -21.285156 26.375 -17.890625 L 26.375 0 L 22.0625 0 L 22.0625 -17.140625 C 22.0625 -22.148438 19.953125 -24.65625 15.734375 -24.65625 C 14.867188 -24.65625 14.03125 -24.546875 13.21875 -24.328125 C 12.40625 -24.109375 11.675781 -23.78125 11.03125 -23.34375 C 10.382812 -22.914062 9.867188 -22.367188 9.484375 -21.703125 C 9.109375 -21.035156 8.921875 -20.253906 8.921875 -19.359375 L 8.921875 0 Z M 4.59375 0 "/></g></g></g><g fill="#ffffff" fill-opacity="1"><g transform="translate(698.769576, 174.79535)"><g><path d="M 15.140625 0.65625 C 13.265625 0.65625 11.550781 0.3125 10 -0.375 C 8.445312 -1.0625 7.117188 -2.046875 6.015625 -3.328125 C 4.921875 -4.609375 4.066406 -6.140625 3.453125 -7.921875 C 2.847656 -9.703125 2.546875 -11.710938 2.546875 -13.953125 C 2.546875 -16.148438 2.847656 -18.148438 3.453125 -19.953125 C 4.066406 -21.753906 4.921875 -23.289062 6.015625 -24.5625 C 7.117188 -25.84375 8.445312 -26.828125 10 -27.515625 C 11.550781 -28.203125 13.265625 -28.546875 15.140625 -28.546875 C 17.015625 -28.546875 18.71875 -28.203125 20.25 -27.515625 C 21.78125 -26.828125 23.101562 -25.84375 24.21875 -24.5625 C 25.332031 -23.289062 26.195312 -21.753906 26.8125 -19.953125 C 27.425781 -18.148438 27.734375 -16.148438 27.734375 -13.953125 C 27.734375 -11.710938 27.425781 -9.703125 26.8125 -7.921875 C 26.195312 -6.140625 25.332031 -4.609375 24.21875 -3.328125 C 23.101562 -2.046875 21.78125 -1.0625 20.25 -0.375 C 18.71875 0.3125 17.015625 0.65625 15.140625 0.65625 Z M 15.140625 -3.1875 C 17.484375 -3.1875 19.390625 -3.90625 20.859375 -5.34375 C 22.335938 -6.789062 23.078125 -8.992188 23.078125 -11.953125 L 23.078125 -15.953125 C 23.078125 -18.898438 22.335938 -21.09375 20.859375 -22.53125 C 19.390625 -23.976562 17.484375 -24.703125 15.140625 -24.703125 C 12.796875 -24.703125 10.882812 -23.976562 9.40625 -22.53125 C 7.925781 -21.09375 7.1875 -18.898438 7.1875 -15.953125 L 7.1875 -11.953125 C 7.1875 -8.992188 7.925781 -6.789062 9.40625 -5.34375 C 10.882812 -3.90625 12.796875 -3.1875 15.140625 -3.1875 Z M 15.140625 -3.1875 "/></g></g></g></svg>